<svg width="128" height="128" viewBox="0 0 128 128" fill="none" xmlns="http://www.w3.org/2000/svg">
  <rect width="128" height="128" rx="24" fill="#15151A"/>
  <path d="M64 16L76.7 51.3L114 52L84.2 74.5L95.1 110L64 89.4L32.9 110L43.8 74.5L14 52L51.3 51.3L64 16Z" fill="#FFD166"/>
  <path d="M64 31L72.1 57.4L99.4 57.9L77.4 74.4L85.6 100.4L64 85.2L42.4 100.4L50.6 74.4L28.6 57.9L55.9 57.4L64 31Z" fill="#5DE0C6"/>
  <path d="M64 45L69.1 63.2L88 63.6L72.8 75L78.5 93L64 82.4L49.5 93L55.2 75L40 63.6L58.9 63.2L64 45Z" fill="#15151A"/>
</svg>
